<?xml version="1.0" encoding="utf-8"?>
<!-- Generator: Adobe Illustrator 22.0.1, SVG Export Plug-In . SVG Version: 6.00 Build 0)  -->
<svg version="1.1" id="Слой_1" xmlns="http://www.w3.org/2000/svg" xmlns:xlink="http://www.w3.org/1999/xlink" x="0px" y="0px"
	 viewBox="0 0 191.8 29.5" style="enable-background:new 0 0 191.8 29.5;" xml:space="preserve">
<style type="text/css">
	.st0{fill:#00C1FF;}
	.st1{fill:#6FE4FF;}
	.st2{fill:#6FE4FF;filter:url(#Adobe_OpacityMaskFilter);}
	.st3{mask:url(#mask0_1_);}
	.st4{fill:#009EE4;}
</style>
<path class="st0" d="M5.2,27.5c-3,1.8-5.2,0.3-5.2-2.3c0-2.8,0-11.1,0-11.1S0,5.8,0,3.1C0,0.5,2.2-1,5.2,0.8
	C10,3.5,24.1,11.7,24.1,11.7c1.9,1.1,1.9,3.8,0,4.9C24.1,16.6,10,24.8,5.2,27.5z"/>
<path class="st1" d="M20.8,27.5c-3,1.8-5.2,0.3-5.2-2.3c0-2.8,0-11.1,0-11.1s0-8.3,0-11.1c0-2.6,2.2-4.1,5.2-2.3
	c4.6,2.7,18.5,10.7,18.5,10.7c2.1,1.2,2.1,4.2,0,5.4C39.3,16.8,25.5,24.9,20.8,27.5z"/>
<defs>
	<filter id="Adobe_OpacityMaskFilter" filterUnits="userSpaceOnUse" x="0" y="0" width="25.6" height="28.3">
		<feColorMatrix  type="matrix" values="1 0 0 0 0  0 1 0 0 0  0 0 1 0 0  0 0 0 1 0"/>
	</filter>
</defs>
<mask maskUnits="userSpaceOnUse" x="0" y="0" width="25.6" height="28.3" id="mask0_1_">
	<path class="st2" d="M20.8,27.5c-3,1.8-5.2,0.3-5.2-2.3c0-2.8,0-11.1,0-11.1s0-8.3,0-11.1c0-2.6,2.2-4.1,5.2-2.3
		c4.6,2.7,18.5,10.7,18.5,10.7c2.1,1.2,2.1,4.2,0,5.4C39.3,16.8,25.5,24.9,20.8,27.5z"/>
</mask>
<g class="st3">
	<g>
		<path class="st4" d="M5.2,27.5c-3,1.8-5.2,0.3-5.2-2.3c0-2.8,0-11.1,0-11.1S0,5.8,0,3.1C0,0.5,2.2-1,5.2,0.8
			C10,3.5,24.1,11.7,24.1,11.7c1.9,1.1,1.9,3.8,0,4.9C24.1,16.6,10,24.8,5.2,27.5z"/>
	</g>
</g>
<path d="M51,19.1l0.5-1.2c0.4-0.8,1-1,1.8-0.4c1.6,1.1,4.2,2,7.6,2c2.9,0,4.2-0.8,4.2-1.7c0-1-1-1.3-2.8-1.5l-3.9-0.5
	c-4.7-0.6-7.1-2.3-7.1-5.2c0-3.2,2.6-5.7,8.6-5.7c3.3,0,5.5,0.5,6.9,1c1.5,0.6,1.8,1.1,1.8,2.4v1.6c0,1-0.4,1.4-1.4,1.4h-1.1
	c-1,0-1.4-0.4-1.4-1.4V9.4c-0.6-0.2-2.3-0.5-4.2-0.5c-3.3,0-4.9,0.6-4.9,1.6c0,0.8,1,1.2,2.7,1.4l3.8,0.5c4.7,0.6,7.2,2,7.2,5.4
	c0,3.4-3.3,5.6-9.1,5.6c-4.3,0-7.7-1.4-9.1-2.6C50.8,20.3,50.7,19.7,51,19.1z"/>
<path d="M93.3,23.1h-2c-1,0-1.3-0.1-1.8-0.9l-3.7-5.5c-0.5-0.8-0.9-0.9-2-0.9h-3.7v5.9c0,1-0.4,1.4-1.4,1.4h-1.4
	c-1,0-1.4-0.4-1.4-1.4V3.9h-1.3c-1,0-1.4-0.4-1.4-1.4V1.4c0-1,0.4-1.4,1.4-1.4h4.1c1,0,1.4,0.4,1.4,1.4v10.4h3.3
	c1.1,0,1.5-0.2,2-0.9l3.1-4.8c0.5-0.8,0.8-0.9,1.8-0.9h2c1.1,0,1.3,0.9,0.7,1.8l-3.5,5.3c-0.4,0.5-0.8,1-1.2,1.5
	c0.4,0.4,1,1,1.3,1.3l4.4,6.4C94.6,22.2,94.4,23.1,93.3,23.1z"/>
<path d="M100.1,26.4v-1.2c0-1,0.4-1.4,1.4-1.4h1.7c1,0,1.5-0.2,1.9-1l0.2-0.5L97.1,6.8c-0.5-0.9-0.1-1.7,1-1.7h1.9
	c1,0,1.4,0.2,1.8,0.9l3.4,7.1c0.8,1.6,1.7,3.5,2.4,5.1c0.7-1.6,1.5-3.4,2.3-4.9l3.5-7.2c0.3-0.7,0.8-0.9,1.8-0.9h1.9
	c1.1,0,1.5,0.7,1,1.7l-9.4,17.8c-1.1,2-2.3,3.2-5.1,3.2h-2C100.5,27.8,100.1,27.4,100.1,26.4z"/>
<path d="M140.9,14.1v0.4c0,1-0.4,1.4-1.4,1.4h-14.7c0.5,1.9,2.4,3.7,6.5,3.7c3.6,0,5.3-1.2,6-1.7c0.8-0.6,1.4-0.4,1.8,0.4l0.6,1.2
	c0.3,0.6,0.1,1.1-0.4,1.5c-0.8,0.7-3.5,2.4-8.1,2.4c-6.2,0-10.5-3.6-10.5-9.3c0-5.6,4.1-9.2,10-9.2C136.8,4.9,140.9,8.5,140.9,14.1z
	 M124.8,12.4h12.1c-0.5-1.9-2.4-3.6-6.1-3.6C127.2,8.8,125.3,10.5,124.8,12.4z"/>
<path d="M167.1,13.5v8.3c0,1-0.4,1.4-1.4,1.4h-1.4c-1,0-1.4-0.4-1.4-1.4v-8.2c0-2.9-1.7-4.5-4.6-4.5c-2.3,0-4.9,1.4-6.3,2.9v9.8
	c0,1-0.4,1.4-1.4,1.4h-1.4c-1,0-1.4-0.4-1.4-1.4V9.1h-1.3c-1,0-1.4-0.4-1.4-1.4V6.5c0-1,0.4-1.4,1.4-1.4h3.5c1,0,1.4,0.4,1.4,1.4v1
	c1.9-1.6,4.6-2.7,7.4-2.7C164.1,4.9,167.1,8.1,167.1,13.5z"/>
<path d="M191.8,6.5v16.8c0,3.7-4,6.2-9.1,6.2c-4.8,0-7.1-1.4-8.2-2.4c-0.5-0.5-0.6-1.1-0.3-1.7l0.5-1.2c0.4-0.9,1-1.1,1.8-0.4
	c1.3,1,2.5,1.8,6.1,1.9c3.2,0,5-1.2,5-2.6v-1.7c-1.3,0.8-2.9,1.4-5.1,1.4c-5.8,0-9.8-3.4-9.8-8.9c0-5.5,4-8.9,9.8-8.9
	c2.5,0,4.2,0.7,5.3,1.6c0.3-0.6,0.9-1.3,1.6-1.3h1.1C191.5,5.2,191.8,5.5,191.8,6.5z M187.7,16.6v-5.7c-1-1.2-2.5-2-5.1-2
	c-3.2,0-5.5,1.8-5.5,4.8c0,3,2.3,4.8,5.5,4.8C185.1,18.6,186.6,17.8,187.7,16.6z"/>
</svg>
